<?xml version="1.0" encoding="UTF-8"?>
<svg id="Layer_1" xmlns="http://www.w3.org/2000/svg" version="1.1" viewBox="0 0 24 24">
  <!-- Generator: Adobe Illustrator 29.6.1, SVG Export Plug-In . SVG Version: 2.1.1 Build 9)  -->
  <defs>
    <style>
      .st0 {
        fill: #605e5c;
        isolation: isolate;
        opacity: .64;
      }

      .st1 {
        fill: #33c481;
      }

      .st2 {
        fill: #fff;
      }
    </style>
  </defs>
  <path class="st2" d="M5.5,22h13c.27,0,.5-.23.5-.5V7h-3.5c-.83,0-1.5-.67-1.5-1.5v-3.5H5.5c-.28,0-.5.22-.5.5v19c0,.27.22.5.5.5Z"/>
  <path class="st2" d="M18.29,6l-3.29-3.29v2.79c0,.28.23.5.5.5h2.79Z"/>
  <path class="st0" d="M19.56,5.85L15.15,1.44c-.28-.28-.66-.44-1.06-.44H5.5c-.83,0-1.5.67-1.5,1.5v19c0,.83.67,1.5,1.5,1.5h13c.83,0,1.5-.67,1.5-1.5V6.91c0-.4-.16-.78-.44-1.06ZM15,2.71l3.29,3.29h-2.79c-.28,0-.5-.22-.5-.5,0,0,0-2.79,0-2.79ZM18.5,22H5.5c-.28,0-.5-.22-.5-.5V2.5c0-.28.22-.5.5-.5h8.5v3.5c0,.83.67,1.5,1.5,1.5h3.5v14.5c0,.27-.23.5-.5.5Z"/>
  <path class="st1" d="M7.57,14.97c0-.08.02-.16.05-.24s.08-.14.13-.2.12-.1.19-.13c.07-.03.15-.05.24-.05.16,0,.31.06.43.19l2.03,1.77,4.75-4.64c.12-.12.27-.19.44-.19.08,0,.16.02.24.05.07.03.14.08.19.14.06.06.1.13.13.2s.05.15.05.24c0,.17.07.46-.05.59l-5.32,5.2c-.05.06-.12.1-.2.13-.07.03-.15.05-.24.05-.16,0-.44.07-.56-.05l-2.47-2.5c-.12-.12-.05-.37-.05-.55h.02Z"/>
</svg>